<svg width="15" height="5" viewBox="0 0 15 5" fill="none" xmlns="http://www.w3.org/2000/svg">
<path d="M7.50812 0C10.1657 0 12.7071 0.937444 14.7187 2.65573L14.8904 2.8024C15.0292 2.92093 15.0373 3.13219 14.9082 3.26102L13.7217 4.44416C13.6068 4.55878 13.4231 4.56681 13.2985 4.46266L13.1516 4.33982C11.5678 3.01549 9.58268 2.29511 7.50812 2.29511C5.42649 2.29511 3.43502 3.02045 1.84885 4.35306L1.7019 4.47653C1.57736 4.58115 1.39325 4.57332 1.27811 4.4585L0.0918497 3.27554C-0.0371651 3.14688 -0.029225 2.93598 0.1091 2.81733L0.28015 2.67061C2.29424 0.943042 4.84269 0 7.50812 0Z" fill="black"/>
</svg>
