<svg width="10" height="4" viewBox="0 0 10 4" fill="none" xmlns="http://www.w3.org/2000/svg">
<path d="M5.0085 0C6.71545 0 8.35435 0.566261 9.68945 1.61491L9.87814 1.76311C10.0286 1.88127 10.0418 2.1039 9.90638 2.23893L8.69307 3.44887C8.58085 3.56078 8.40328 3.57363 8.27603 3.47906L8.12812 3.36913C7.2264 2.69897 6.13907 2.33949 5.0085 2.33949C3.87098 2.33949 2.7773 2.70344 1.87258 3.3813L1.72453 3.49223C1.59727 3.58758 1.41905 3.57502 1.30649 3.46278L0.0936284 2.25329C-0.0414871 2.11855 -0.0286591 1.89647 0.121078 1.77809L0.308692 1.62977C1.64697 0.571772 3.29333 0 5.0085 0Z" fill="black"/>
</svg>
