<svg width="29" height="12" viewBox="0 0 29 12" fill="none" xmlns="http://www.w3.org/2000/svg">
<path d="M3.94526 11.3127C6.68751 11.3127 8.31642 9.16824 8.31642 5.53681C8.31642 4.16942 8.0549 3.01872 7.55427 2.12954C6.82948 0.747208 5.58164 0 4.00503 0C1.6588 0 0 1.57661 0 3.78834C0 5.86558 1.49442 7.37494 3.54924 7.37494C4.81202 7.37494 5.83569 6.78465 6.34379 5.76097H6.36621C6.36621 5.76097 6.3961 5.76097 6.40357 5.76097C6.41851 5.76097 6.47082 5.76097 6.47082 5.76097C6.47082 8.22676 5.53681 9.69876 3.9602 9.69876C3.03366 9.69876 2.31634 9.19065 2.06977 8.3762H0.149442C0.470741 10.1471 1.97263 11.3127 3.94526 11.3127ZM4.0125 5.84316C2.77214 5.84316 1.89044 4.96146 1.89044 3.72857C1.89044 2.52556 2.81697 1.6065 4.01998 1.6065C5.22298 1.6065 6.14952 2.54051 6.14952 3.75845C6.14952 4.96146 5.2454 5.84316 4.0125 5.84316Z" fill="black"/>
<path d="M11.4699 11.2081C12.1798 11.2081 12.6655 10.7 12.6655 10.0275C12.6655 9.34757 12.1798 8.84694 11.4699 8.84694C10.7676 8.84694 10.2744 9.34757 10.2744 10.0275C10.2744 10.7 10.7676 11.2081 11.4699 11.2081ZM11.4699 5.60406C12.1798 5.60406 12.6655 5.10343 12.6655 4.43094C12.6655 3.75098 12.1798 3.25035 11.4699 3.25035C10.7676 3.25035 10.2744 3.75098 10.2744 4.43094C10.2744 5.10343 10.7676 5.60406 11.4699 5.60406Z" fill="black"/>
<path d="M19.6596 11.0512H21.5052V9.04121H22.9623V7.4123H21.5052V0.268995H18.7854C16.88 3.13827 15.3632 5.53681 14.3918 7.32263V9.04121H19.6596V11.0512ZM16.1776 7.34505C17.433 5.13332 18.5538 3.36243 19.5849 1.83813H19.6895V7.45713H16.1776V7.34505Z" fill="black"/>
<path d="M27.0722 11.0512H29V0.268995H27.0797L24.2627 2.24162V4.0947L26.9452 2.21173H27.0722V11.0512Z" fill="black"/>
</svg>
