<svg width="10" height="4" viewBox="0 0 10 4" fill="none" xmlns="http://www.w3.org/2000/svg">
<path d="M5.00849 0C6.71543 0 8.35432 0.566259 9.68942 1.61491L9.8781 1.76311C10.0285 1.88126 10.0417 2.1039 9.90634 2.23892L8.69304 3.44886C8.58082 3.56077 8.40325 3.57362 8.276 3.47905L8.1281 3.36912C7.22637 2.69896 6.13905 2.33948 5.00849 2.33948C3.87096 2.33948 2.77729 2.70343 1.87258 3.38129L1.72452 3.49221C1.59726 3.58756 1.41904 3.57501 1.30649 3.46277L0.0936281 2.25328C-0.041487 2.11854 -0.028659 1.89647 0.121077 1.77809L0.308691 1.62977C1.64697 0.57177 3.29332 0 5.00849 0Z" fill="black"/>
</svg>
